<svg width="311" height="80" viewBox="0 0 311 80" xmlns="http://www.w3.org/2000/svg"><path d="M103.833 36.044h5.08c1.478 0 2.604-.405 3.375-1.218.773-.813 1.16-1.857 1.16-3.135 0-1.303-.387-2.37-1.16-3.203-.771-.833-1.897-1.249-3.375-1.249h-5.08v8.805zm0 5.24v10.054H97V22h11.913c3.48 0 6.242.89 8.284 2.67 2.044 1.78 3.065 4.107 3.065 6.981 0 2.89-1.021 5.217-3.065 6.984-2.042 1.765-4.804 2.649-8.284 2.649h-5.08zM147.213 22v19.223c0 3.345-1.113 5.938-3.337 7.78-2.223 1.839-5.136 2.758-8.736 2.758-3.642 0-6.578-.92-8.81-2.759-2.23-1.841-3.346-4.434-3.346-7.78V22h6.833v19.223c0 1.801.465 3.134 1.391 4 .927.866 2.238 1.3 3.932 1.3 1.679 0 2.971-.43 3.879-1.29.907-.86 1.36-2.197 1.36-4.01V22h6.833zm11.07 24.1h13.365v5.238h-21.75v-3.062l13.122-21.037h-13.182V22h21.63v2.942L158.282 46.1zm23.882 0h13.364v5.238h-21.748v-3.062l13.122-21.037H173.72V22h21.63v2.942L182.165 46.1zm22.753 0h12.639v5.238h-19.473V22h6.834v24.1zm33.348-7.315h-11.51v7.314h13.566v5.239h-20.398V22h20.438v5.24h-13.606v6.306h11.51v5.239zm22.675 12.553h-6.793V22h6.793v29.338zm24.798-24.099h-7.74v24.098h-6.835V27.24h-7.679V22h22.254v5.24zm24.868 13.803l.04.12c-.134 3.44-1.153 6.065-3.053 7.88-1.904 1.813-4.66 2.718-8.275 2.718-3.628 0-6.578-1.114-8.849-3.344-2.271-2.23-3.407-5.124-3.407-8.684v-6.126c0-3.546 1.091-6.437 3.276-8.674 2.184-2.236 5.02-3.355 8.517-3.355 3.708 0 6.542.934 8.503 2.8 1.964 1.868 3.072 4.52 3.327 7.96l-.038.12h-6.633c-.094-1.906-.52-3.325-1.28-4.25-.759-.928-2.053-1.39-3.88-1.39-1.546 0-2.762.62-3.65 1.863-.885 1.243-1.329 2.871-1.329 4.886v6.166c0 2.028.484 3.668 1.452 4.916.967 1.25 2.297 1.875 3.99 1.875 1.64 0 2.803-.437 3.488-1.311.685-.872 1.075-2.263 1.168-4.17h6.633zm-298.2 27.232c-15.627-15.621-15.627-40.948 0-56.57 15.626-15.62 40.963-15.618 56.589 0 15.627 15.623 15.625 40.947 0 56.569-15.627 15.622-40.961 15.623-56.588.001zm87.812.116c.472 0 .889-.146 1.249-.437.358-.292.538-.65.538-1.076h1.282l.013.045c.024.675-.275 1.275-.9 1.801a3.286 3.286 0 01-2.182.788c-1.14 0-2.01-.37-2.613-1.113-.603-.743-.905-1.677-.905-2.8v-.305c0-1.114.303-2.043.909-2.789.605-.744 1.475-1.117 2.61-1.117.915 0 1.664.27 2.246.81.581.54.862 1.204.843 1.99l-.015.043h-1.288c0-.478-.168-.883-.507-1.22-.337-.334-.765-.502-1.28-.502-.749 0-1.282.269-1.603.806-.322.537-.481 1.196-.481 1.976v.303c0 .8.158 1.466.477 1.998.318.533.855.8 1.607.8zm6.155-5.809c.27-.376.602-.67.995-.88.394-.21.829-.314 1.307-.314.834 0 1.484.25 1.95.752.466.502.699 1.274.699 2.315v4.905h-1.426V64.44c0-.646-.139-1.124-.416-1.433-.278-.308-.691-.463-1.241-.463-.396 0-.755.093-1.075.279a2.325 2.325 0 00-.793.756v5.78h-1.425V58.073h1.425v4.508zm9.33 5.73c.517 0 .983-.133 1.398-.397.415-.265.685-.568.81-.91v-1.268h-1.6c-.573 0-1.033.143-1.378.432-.344.289-.517.628-.517 1.017 0 .347.108.62.326.822.217.202.537.304.962.304zm2.368 1.048a11.643 11.643 0 01-.113-.625 4.722 4.722 0 01-.046-.547 3.312 3.312 0 01-1.04.944c-.426.254-.886.38-1.378.38-.815 0-1.436-.208-1.864-.626-.426-.416-.64-.992-.64-1.725 0-.747.303-1.333.908-1.754.606-.423 1.428-.634 2.465-.634h1.549V64c0-.458-.14-.821-.42-1.09-.28-.267-.676-.401-1.187-.401-.459 0-.831.117-1.118.351-.288.234-.431.515-.431.843h-1.36l-.015-.044c-.029-.568.24-1.09.807-1.562.567-.473 1.3-.709 2.197-.709.887 0 1.6.225 2.142.677.54.45.81 1.1.81 1.949v3.77c0 .279.014.549.043.81.03.26.082.516.16.766h-1.469zm4.572-7.827l.1 1.164c.261-.414.589-.737.98-.965.395-.23.842-.344 1.344-.344.844 0 1.498.248 1.96.741.464.495.695 1.258.695 2.29v4.942h-1.425v-4.913c0-.69-.137-1.179-.408-1.468-.274-.29-.69-.434-1.249-.434-.41 0-.773.099-1.09.296a2.173 2.173 0 00-.756.81v5.709h-1.425v-7.828h1.274zm8.216 4.21c0 .786.167 1.418.5 1.896.333.477.84.715 1.52.715.43 0 .789-.097 1.078-.292.29-.195.529-.472.717-.829V63.63a2.206 2.206 0 00-.717-.793c-.294-.195-.649-.292-1.064-.292-.68 0-1.19.284-1.526.853-.339.569-.508 1.3-.508 2.192v.152zm-1.425-.152c0-1.259.275-2.274.825-3.045.55-.772 1.31-1.158 2.28-1.158.496 0 .933.1 1.31.3.376.2.69.489.94.865l.174-1.02h1.136v7.87c0 1.004-.291 1.774-.875 2.313-.584.537-1.426.805-2.526.805-.376 0-.783-.051-1.22-.154a4.794 4.794 0 01-1.154-.424l.362-1.106c.255.144.565.261.926.35.363.09.719.134 1.071.134.695 0 1.2-.158 1.516-.474.317-.316.475-.797.475-1.443v-.882a2.49 2.49 0 01-.92.74c-.357.168-.766.25-1.23.25-.96 0-1.715-.347-2.265-1.042-.55-.694-.825-1.603-.825-2.727v-.152zm10.202 3.77h-1.425v-7.828h1.425v7.828zm0-9.833h-1.425v-1.454h1.425v1.454zm3.387 2.005l.101 1.164c.26-.414.588-.737.98-.965.395-.23.842-.344 1.344-.344.844 0 1.498.248 1.96.741.464.495.695 1.258.695 2.29v4.942h-1.425v-4.913c0-.69-.137-1.179-.408-1.468-.274-.29-.69-.434-1.25-.434-.41 0-.773.099-1.089.296a2.173 2.173 0 00-.756.81v5.709h-1.425v-7.828h1.273zm8.218 4.21c0 .786.166 1.418.5 1.896.333.477.839.715 1.52.715.43 0 .788-.097 1.078-.292.29-.195.528-.472.716-.829V63.63a2.206 2.206 0 00-.716-.793c-.295-.195-.649-.292-1.064-.292-.68 0-1.19.284-1.527.853-.338.569-.507 1.3-.507 2.192v.152zm-1.426-.152c0-1.259.275-2.274.825-3.045.55-.772 1.311-1.158 2.28-1.158.497 0 .934.1 1.31.3.377.2.69.489.94.865l.174-1.02h1.137v7.87c0 1.004-.292 1.774-.875 2.313-.585.537-1.426.805-2.526.805-.377 0-.783-.051-1.22-.154a4.794 4.794 0 01-1.154-.424l.361-1.106c.256.144.566.261.926.35.363.09.72.134 1.072.134.694 0 1.2-.158 1.516-.474.317-.316.474-.797.474-1.443v-.882a2.49 2.49 0 01-.919.74c-.357.168-.766.25-1.23.25-.96 0-1.715-.347-2.266-1.042-.55-.694-.825-1.603-.825-2.727v-.152zm14.192 3.77h-1.433V58.826h1.433V69.36zm9.785-9.413h-3.388v9.413h-1.425v-9.413h-3.38v-1.121h8.193v1.121zm5.557 9.412v-6.771h-1.222V61.53h1.222v-.99c0-.835.219-1.48.656-1.936.436-.456 1.045-.683 1.827-.683.164 0 .329.013.496.04a7.8 7.8 0 01.553.111l-.174 1.086a3.012 3.012 0 00-.314-.05 3.11 3.11 0 00-.387-.023c-.415 0-.724.124-.927.373-.203.248-.303.61-.303 1.081v.991h1.628v1.057h-1.628v6.771h-1.427zm5.353-3.83c0 .829.175 1.513.524 2.051.35.54.87.81 1.56.81.68 0 1.197-.27 1.549-.81.352-.538.528-1.222.528-2.051v-.16c0-.818-.177-1.5-.531-2.044-.355-.545-.875-.817-1.56-.817-.68 0-1.196.272-1.546.817-.349.544-.524 1.226-.524 2.044v.16zm-1.427-.156c0-1.157.315-2.111.942-2.86.627-.751 1.479-1.126 2.555-1.126 1.086 0 1.943.374 2.573 1.121.63.748.944 1.703.944 2.865v.16c0 1.167-.313 2.122-.94 2.864-.628.743-1.482 1.114-2.563 1.114-1.08 0-1.936-.372-2.565-1.117-.63-.745-.946-1.7-.946-2.861v-.16zm12.446-2.583l-.731-.043c-.376 0-.694.09-.952.268a1.72 1.72 0 00-.597.753v5.592h-1.425v-7.828h1.274l.137 1.143c.221-.405.495-.721.821-.949.326-.225.7-.339 1.126-.339a2.062 2.062 0 01.542.079l-.195 1.324zm6.941-3.147v1.889h1.484v1.056h-1.484v4.753c0 .367.076.625.227.774.153.15.354.225.605.225.082 0 .172-.01.271-.03.1-.018.187-.043.265-.072l.188.977a1.263 1.263 0 01-.467.213 2.38 2.38 0 01-.619.083c-.579 0-1.04-.174-1.383-.524-.342-.35-.513-.898-.513-1.646v-4.753h-1.245v-1.056h1.245v-1.889h1.426zm4.482 2.938c.27-.376.602-.67.995-.88.394-.21.83-.314 1.307-.314.834 0 1.484.25 1.95.752.466.502.699 1.274.699 2.315v4.905h-1.426V64.44c0-.646-.139-1.124-.416-1.433-.278-.308-.691-.463-1.241-.463-.396 0-.755.093-1.075.279a2.325 2.325 0 00-.793.756v5.78h-1.425V58.073h1.425v4.508zm9.991-.073c-.478 0-.886.201-1.223.602-.338.402-.546.906-.622 1.511l.014.036h3.611v-.188c0-.557-.149-1.023-.448-1.398-.3-.375-.743-.563-1.332-.563zm.218 7.003c-1.09 0-1.958-.362-2.603-1.088-.643-.726-.965-1.668-.965-2.825v-.319c0-1.114.331-2.042.994-2.782.664-.74 1.45-1.11 2.356-1.11 1.057 0 1.855.318 2.396.955.54.637.81 1.485.81 2.546v.89h-5.08l-.022.037c.015.75.205 1.367.572 1.85.366.483.88.725 1.542.725a3.6 3.6 0 001.27-.206 2.92 2.92 0 00.944-.568l.557.927c-.28.277-.649.507-1.107.692-.458.185-1.014.276-1.664.276zm13.533-3.92c0-.897-.165-1.63-.495-2.196-.331-.567-.835-.85-1.51-.85-.44 0-.809.107-1.11.321a2.27 2.27 0 00-.721.865v3.393c.183.386.423.687.72.904.297.218.672.326 1.126.326.67 0 1.17-.239 1.498-.717.328-.477.492-1.109.492-1.895v-.151zm1.426.151c0 1.128-.271 2.039-.815 2.731-.542.692-1.29 1.038-2.24 1.038-.516 0-.965-.1-1.345-.3a2.498 2.498 0 01-.949-.886l-.173 1.035h-1.165V58.074h1.425v4.384c.246-.348.552-.613.915-.796.365-.183.79-.275 1.279-.275.964 0 1.716.386 2.257 1.158.54.77.811 1.786.811 3.046v.151zm4.747-3.234c-.478 0-.886.201-1.223.602-.338.402-.546.906-.622 1.511l.013.036h3.612v-.188c0-.557-.149-1.023-.448-1.398-.3-.375-.743-.563-1.332-.563zm.217 7.003c-1.09 0-1.957-.362-2.602-1.088-.644-.726-.965-1.668-.965-2.825v-.319c0-1.114.331-2.042.994-2.782.664-.74 1.45-1.11 2.356-1.11 1.057 0 1.855.318 2.396.955.54.637.81 1.485.81 2.546v.89h-5.08l-.022.037c.014.75.205 1.367.572 1.85.366.483.88.725 1.541.725a3.6 3.6 0 001.27-.206 2.92 2.92 0 00.945-.568l.557.927c-.28.277-.65.507-1.107.692-.458.185-1.014.276-1.665.276zm6.496-9.868v1.889h1.483v1.056h-1.483v4.753c0 .367.075.625.227.774.153.15.354.225.605.225.082 0 .172-.01.271-.03.099-.018.187-.043.265-.072l.187.977a1.263 1.263 0 01-.466.213 2.381 2.381 0 01-.62.083c-.578 0-1.04-.174-1.382-.524-.342-.35-.514-.898-.514-1.646v-4.753h-1.244v-1.056h1.244v-1.889h1.427zm5.3 0v1.889h1.484v1.056h-1.484v4.753c0 .367.076.625.228.774.152.15.353.225.604.225.082 0 .173-.01.271-.03.1-.018.187-.043.265-.072l.188.977a1.263 1.263 0 01-.467.213 2.38 2.38 0 01-.619.083c-.578 0-1.04-.174-1.382-.524-.343-.35-.514-.898-.514-1.646v-4.753h-1.245v-1.056h1.245v-1.889h1.426zm5.849 2.865c-.478 0-.886.201-1.223.602-.339.402-.546.906-.622 1.511l.013.036h3.612v-.188c0-.557-.15-1.023-.448-1.398-.3-.375-.744-.563-1.332-.563zm.217 7.003c-1.09 0-1.958-.362-2.602-1.088-.644-.726-.966-1.668-.966-2.825v-.319c0-1.114.332-2.042.995-2.782.664-.74 1.449-1.11 2.356-1.11 1.056 0 1.855.318 2.395.955s.81 1.485.81 2.546v.89h-5.08l-.022.037c.015.75.206 1.367.573 1.85.366.483.88.725 1.541.725a3.6 3.6 0 001.27-.206 2.92 2.92 0 00.944-.568l.558.927c-.28.277-.65.507-1.108.692-.458.185-1.013.276-1.664.276zm8.347-6.72l-.73-.044c-.377 0-.695.09-.953.268a1.72 1.72 0 00-.596.753v5.592h-1.426v-7.828h1.274l.137 1.143c.221-.405.495-.721.821-.949.326-.225.7-.339 1.126-.339a2.062 2.062 0 01.542.079l-.195 1.324zM39.652 44.898s7.202-1.017 9.283-5.037c2.082-4.017 4.534-12.159 4.534-12.159-11.089-.001-12.077 3.882-12.077 3.882s-7.009 19.59-9.508 26.818c-19.419 0-16.315-9.588-16.315-9.588l9.713-27.238h19.68l-1.315 3.921s1.604-3.921 12.45-3.921c0 0 11.12.048 9.813 3.943-1.305 3.892-5.5 15.573-5.5 15.573-1.402 3.806-9.612 3.773-20.758 3.806z" fill="#1E5996" fill-rule="evenodd"/></svg>