<svg id="Ebene_1" data-name="Ebene 1" xmlns="http://www.w3.org/2000/svg" viewBox="0 0 554.07 301.28"><defs><style>.cls-1{fill:#444;}.cls-2{fill:#4081cb;}</style></defs><polyline class="cls-1" points="164.16 264.17 0 169.29 0 128.63 163.16 33.24 162.55 75.49 34.64 149.71 164.34 222.5 164.16 264.17"/><path class="cls-2" d="M584.9,373.43v38.41s-40.8-30-90.19-30c-53.43,0-113.13,39.13-113.13,39.13V378.74c41.29-22.09,77.94-33.32,113.59-33.32,43.54,0,89.73,28,89.73,28" transform="translate(-219.03 -345.42)"/><path class="cls-2" d="M496,593a99.55,99.55,0,1,0-99.8-99.55A99.67,99.67,0,0,0,496,593" transform="translate(-219.03 -345.42)"/><polyline class="cls-1" points="389.91 36.82 554.07 131.7 554.07 172.36 390.91 267.75 391.51 225.5 519.43 151.28 389.73 78.49 389.91 36.82"/><path class="cls-2" d="M407.16,618.7V580.29s40.79,30,90.18,30c53.43,0,113.14-39.12,113.14-39.12v42.17c-41.3,22.1-78,33.32-113.58,33.32-43.56,0-89.74-28-89.74-28" transform="translate(-219.03 -345.42)"/></svg>